<svg width="650" height="650" viewBox="0 0 650 650" fill="none" xmlns="http://www.w3.org/2000/svg">
<path d="M325 75L541.507 200V450M325 75L108.494 200V450M325 75V325M541.507 450L325 575L108.494 450M541.507 450L325 325M108.494 450L325 325" stroke="#33CCFF" stroke-width="8" stroke-dasharray="20 20"/>
<path d="M246.037 458V199.091H411.901V238.408H292.939V308.697H400.523V348.014H292.939V458H246.037Z" fill="#333333"/>
<path d="M541.507 200L325 75L108.494 200M541.507 200V450L325 575M541.507 200L325 325M325 575L108.494 450V200M325 575V325M108.494 200L325 325" stroke="#33CCFF" stroke-width="8"/>
</svg>
